<svg width="20" height="22" viewBox="0 0 20 22" fill="none" xmlns="http://www.w3.org/2000/svg">
<g id="icon_apple">
<path id="Vector" d="M16.3852 11.6033C16.3682 10.7946 16.5951 9.99758 17.0404 9.30195C17.4856 8.60631 18.1315 8.03972 18.9054 7.66599C18.4181 7.0379 17.7817 6.52192 17.0453 6.15784C16.3089 5.79376 15.4921 5.5913 14.658 5.56607C12.8599 5.43482 10.9061 6.53728 10.1841 6.53728C9.462 6.53728 7.67809 5.61857 6.31893 5.61857C3.48733 5.61857 0.5 7.70536 0.5 11.8658C0.513654 13.1627 0.757604 14.4486 1.22206 15.672C1.84501 17.3519 4.18107 21.5649 6.61624 21.4992C7.89046 21.4992 8.79657 20.6593 10.4531 20.6593C12.1095 20.6593 12.8882 21.4992 14.3182 21.4992C16.7675 21.4992 18.8912 17.6275 19.5 15.9082C18.5782 15.5587 17.7896 14.9626 17.2348 14.1959C16.6801 13.4291 16.3843 12.5266 16.3852 11.6033ZM13.5537 3.89925C13.9935 3.43943 14.3252 2.89967 14.5276 2.3144C14.7299 1.72913 14.7984 1.11119 14.7288 0.5C13.4068 0.634385 12.1859 1.21903 11.3025 2.14057C10.8458 2.58668 10.4931 3.11527 10.2666 3.69335C10.0401 4.27143 9.94449 4.88659 9.98584 5.50044C10.6714 5.5183 11.3515 5.38198 11.9679 5.10314C12.5843 4.8243 13.1187 4.41123 13.5253 3.89925H13.5537Z" fill="black"/>
</g>
</svg>
