<svg width="23" height="22" viewBox="0 0 23 22" fill="none" xmlns="http://www.w3.org/2000/svg">
<g id="Group">
<path id="Vector" d="M11.5 21C17.0228 21 21.5 16.5228 21.5 11C21.5 5.47715 17.0228 1 11.5 1C5.97715 1 1.5 5.47715 1.5 11C1.5 16.5228 5.97715 21 11.5 21Z" stroke="black" stroke-width="2" stroke-linecap="round"/>
<path id="Vector_2" d="M7.5 8.0502V7.9502M15.5 8.0502V7.9502" stroke="black" stroke-width="2" stroke-linecap="round"/>
<path id="Vector_3" d="M11.5 17C12.5609 17 13.5783 16.5786 14.3284 15.8284C15.0786 15.0783 15.5 14.0609 15.5 13H7.5C7.5 14.0609 7.92143 15.0783 8.67157 15.8284C9.42172 16.5786 10.4391 17 11.5 17Z" stroke="black" stroke-width="2" stroke-linecap="round" stroke-linejoin="round"/>
</g>
</svg>
