<svg width="41" height="40" viewBox="0 0 41 40" fill="none" xmlns="http://www.w3.org/2000/svg">
<path d="M32.4167 5H9.08333C7.24238 5 5.75 6.49238 5.75 8.33333V31.6667C5.75 33.5076 7.24238 35 9.08333 35H32.4167C34.2576 35 35.75 33.5076 35.75 31.6667V8.33333C35.75 6.49238 34.2576 5 32.4167 5Z" stroke="#4741AB" stroke-width="2"/>
<rect x="6.75" y="6" width="28" height="28" fill="#4741AB"/>
<path d="M22.81 17L23.75 17.94L14.67 27H13.75V26.08L22.81 17ZM26.41 11C26.16 11 25.9 11.1 25.71 11.29L23.88 13.12L27.63 16.87L29.46 15.04C29.85 14.65 29.85 14 29.46 13.63L27.12 11.29C26.92 11.09 26.67 11 26.41 11ZM22.81 14.19L11.75 25.25V29H15.5L26.56 17.94L22.81 14.19Z" fill="white"/>
</svg>
