<svg width="23" height="22" viewBox="0 0 23 22" fill="none" xmlns="http://www.w3.org/2000/svg">
<g id="Group">
<path id="Vector" d="M11.5 21C17.0228 21 21.5 16.5228 21.5 11C21.5 5.47715 17.0228 1 11.5 1C5.97715 1 1.5 5.47715 1.5 11C1.5 16.5228 5.97715 21 11.5 21Z" stroke="black" stroke-width="2" stroke-linecap="round"/>
<path id="Vector_2" d="M7.5 8.0502V7.9502M15.5 8.0502V7.9502" stroke="black" stroke-width="2" stroke-linecap="round"/>
<path id="Vector_3" d="M11.5 12C12.5609 12 13.5783 12.4214 14.3284 13.1716C15.0786 13.9217 15.5 14.9391 15.5 16H7.5C7.5 14.9391 7.92143 13.9217 8.67157 13.1716C9.42172 12.4214 10.4391 12 11.5 12Z" stroke="black" stroke-width="2" stroke-linecap="round" stroke-linejoin="round"/>
</g>
</svg>
